<?xml version="1.0" encoding="UTF-8"?><svg id="Layer_1" xmlns="http://www.w3.org/2000/svg" viewBox="0 0 1219.21 903.53"><defs><style>.cls-1{fill:#e0e0e0;}.cls-2{fill:#9647fe;}</style></defs><path class="cls-2" d="M226.21,627.59c-8.76,14.83-18.38,27.27-29.09,40.24-5.1,6.18-6.65,15.45-13.57,20.95,3.51,8.37,10.98,12.61,18.82,16.51,22.25,11.08,44.31,22.59,63.1,39.55,4.86,6.39,9.25,12.88,13.78,19.79,12.05,18.38,10.69,45.12-2.51,63.2-16.94-3.17-18.33-32.47-37.43-21.97-5.61-1.35-9.1-5.74-14.5-6-2.07,2.55-3.8,5.21-5.62,5.86-7.16,2.58-8.2-4.06-18.75-6.59-6.92-1.66-5.53,3.45-10.62,5.63-8.95,3.83-17.24,5.74-25.69,1.48-6.96-3.51-10.28-11.28-13.25-19.72-4.19,11.17-4.36,24.5-14.71,30.35-18.59,10.51-39.86,14.75-60.28,20.71-11.55,3.37-16.29,13.99-24.3,20.96-28.26,24.6-12.79,47.98-33.11,44.65-6.82-1.12-6.03-6.89-7.91-12.74-11.21-35-15.94-74.42-1.85-108.73,25.54-62.24,70.55-77.27,74.96-89.23,11.03-29.91,18.91-60.03,30-89.19,24.37-64.11,54.96-125.24,95.44-179.99,68.55-92.7,170.09-147.35,287.28-178.15,33-8.67,81.88-19.81,113.86-24.12,60.76-8.19,55.37-91.96,52.29-130.94-.91-11.55-3.18-22.37-4.23-33.79-1.38-14.99-10.78-35.32-6.76-54.15,15.8-8.25,48.57,9.07,55.74,16.46,17.24,17.78,29.83,37.06,38.77,59.97,6.28,16.09,12.26,32.38,16.07,49.45,5.43,24.33,11.86,47.05,17.29,71.1,5.26,23.27,9.33,35.43,19.38,58.85,16.61,13.13,34.72,26.06,53.45,38.43,25.53,16.86,49.78,35.61,75.42,53.64,78.04,54.87,146.99,119.6,204.53,195.58,22.7,29.98,43.8,60.79,58.43,94.87,19.4,45.21,18.27,82.68,23.93,100.26,3.92,12.16,7.28,22.59,1.73,35.52-2.21,5.15-1.65,11.29-9.34,13.49-.18,13.55-7.75,23.05-20.31,28.07-48.69,19.47-94.72-8.18-138.88-18.36-29.05-6.69-58.59-9.38-88.12-14.85-54.62-10.12-116.57-28.29-167.09-60.7-95.9,42.08-241.11,40.27-315.95-34.54-6.74-6.73-10.93-14.67-17.23-22.55,4.73-3.8-.5-7.31,3.04-11.61l110.61-37.03c-29.01-14.46-51.28-24.5-79.75-35.73-25.84-7.22-51.83-17.23-77.78-22.37-49.19-9.73-98.22-3.4-143.72,21.56-14.23,7.81-24.65,20.15-34.9,32.97-3.21,4.01-7.68,7.89-10.66,12.93ZM800.77,400.56c0-66.05-53.55-119.6-119.6-119.6s-119.6,53.55-119.6,119.6,53.55,119.6,119.6,119.6,119.6-53.55,119.6-119.6ZM407.01,539.8c63.78,8.69,101.33,30.91,160.05,56.61,6.22.15,14.27-3.67,22.29-7.58-9.97-8.55-19.34-13.78-28.18-21.57-74.07-65.15-112.68-124.3-223.31-105.98-3.88-1.38-9.15,4.09-13.83,1.51-12.33,3.93-25.69,8.28-38.42,13.17-37.68,14.49-92.42,60.64-101.36,97.01l-5.9,24.01c-2.37,9.63-4.55,21.09,4.47,28.35,22.45-15.43,41.54-31.43,63.9-45.13,48.28-29.57,103.6-48.12,160.3-40.4ZM939.36,663.71c12.31,5.29,42.17,15.49,53.18,4.44,1.41-65.6-86.33-110.79-137.95-88.66-3.59,1.54-7.68,2.5-8.89,5.73-.91,2.44-.24,9,2.33,9.99,11.94,4.61,11.8,15.15,16.79,23.75,23.63,40.79,55.08,36.39,74.54,44.75ZM855.58,685.36c-3.03,2.26-4.09,3.84-4.58,6.24-13.03,8.29-25.95,16.52-41.03,23.46-2.18,2.28,1.96,4.45,4.99,6.81,2.86,2.23,6.46.76,9.15-1.07,17.4-11.84,52.55-23.11,37.52-46.18-2.85-4.38-9.27-10.45-16.45-12.16-67.21-15.96-80.03-47.14-128.91-70.36-23.42-11.13-47.25-11.23-71.86-3.61-11.16,3.46-23.63,3.85-35.01,9.41-7.68,3.75-15.74,5.06-24.45,7.04,7.15,5.74,13.12,5.34,20.25,2.96,18.93-6.31,38.76-11.74,58.63-15.96,38.49-8.17,78.08,27.95,109.25,50.48,48.05,34.75,66.51,14.83,82.52,42.93ZM134.01,761.63c7.7-26.52,19.01-49.84,34.37-72.17l47.61-69.21c-33.49,27.56-57.68,62.51-74.1,100.49l-16.6,38.41c-.87,2.02.89,5.47,2.86,6.36,1.49.67,3.85-1.71,5.85-3.88ZM1010.84,701.07c-4.34-12.81-22.71-21.39-33.02-12.77-.34,8.3,6.65,12.83,12.81,14.99s14.19,4.56,20.21-2.23ZM1083.11,797.85c26.02,8.62,53.48,17.44,81.3,15.84l14.58-4.38c1.12-.34,3.27-4.31,2.28-4.63l-5.86-1.91c-21.52-7.02-55.8-8.25-79.9-25.21-41.31-29.08-96.76-9.85-169.7-69.81-8.89-7.31-18.72-13.53-29.17-17.34-23.63,16.99-31.04,30.41-59.31,42.78,17.42,11.87,35.24,16.41,53.18,22.85,3.2,1.53,8.81.29,12.04,2.41,49.51,15.21,125.84,21.27,180.57,39.4ZM130.89,798.66c7.15-3.53,6.44-15.01,9.38-23.26-7.53,4.2-14.57,8.24-21.41,3.81-5.72-3.7-10.51-10.85-8.01-19.04,6.14-20.08,15.97-38.58,21.28-62.21-49.34,17.47-102.36,64.76-104.46,119.55-.49,12.91-5.07,26.19,1.09,38.18,30.87-47.5,52.86-33,102.13-57.03ZM224.66,778.05c19.52-6.13,21.19,5.64,39.31,14.4,3.82-8.97.58-16.74-3.56-25.42-27.44-23.15-58.93-32.37-85.95-62.16-4.62,12.22-13.41,22.12-18.66,34.56l-13.11,31.1c4.29-1.56,9.74-3.34,13.15-1.38,5.34,6.48,9.33,13.25,16.68,17.17,17.52-.55,35.16-2.94,52.13-8.26Z"/><path class="cls-2" d="M1098.84,491.33c-37.25-41.52-66.5-69.36-107.56-104.09,13.34-11.71,6.16-8.26,15.12-31.25,1.57-4.03,1.1-10.27,5.63-13.48,16.43-11.66,87.13,50.68,89.56,133.6.12,3.99-2.68,9.84-2.75,15.22Z"/><path class="cls-1" d="M407.01,539.8c-56.7-7.72-112.02,10.83-160.3,40.4-22.35,13.69-41.44,29.69-63.9,45.13-9.02-7.26-6.84-18.72-4.47-28.35l5.9-24.01c8.94-36.37,63.68-82.52,101.36-97.01,12.73-4.9,26.09-9.24,38.42-13.17,4.68,2.58,9.95-2.88,13.83-1.51,110.63-18.32,149.24,40.83,223.31,105.98,8.85,7.78,18.21,13.02,28.18,21.57-8.01,3.91-16.06,7.73-22.29,7.58-58.72-25.7-96.27-47.92-160.05-56.61Z"/><path class="cls-1" d="M939.36,663.71c-19.46-8.36-50.91-3.96-74.54-44.75-4.98-8.6-4.85-19.14-16.79-23.75-2.57-.99-3.24-7.56-2.33-9.99,1.21-3.23,5.3-4.19,8.89-5.73,51.62-22.13,139.36,23.06,137.95,88.66-11.01,11.05-40.87.85-53.18-4.44Z"/><path class="cls-1" d="M130.89,798.66c-49.26,24.03-71.25,9.53-102.13,57.03-6.15-11.99-1.58-25.28-1.09-38.18,2.1-54.8,55.13-102.09,104.46-119.55-5.31,23.63-15.15,42.13-21.28,62.21-2.5,8.19,2.29,15.33,8.01,19.04,6.84,4.43,13.88.39,21.41-3.81-2.94,8.25-2.23,19.73-9.38,23.26Z"/><path class="cls-1" d="M224.66,778.05c-16.98,5.33-34.61,7.71-52.13,8.26-7.36-3.92-11.34-10.69-16.68-17.17-3.41-1.96-8.85-.18-13.15,1.38l13.11-31.1c5.24-12.43,14.03-22.33,18.66-34.56,27.02,29.79,58.51,39.02,85.95,62.16,4.14,8.69,7.38,16.46,3.56,25.42-18.12-8.76-19.79-20.53-39.31-14.4Z"/><path class="cls-1" d="M1083.11,797.85c-54.73-18.13-131.06-24.19-180.57-39.4-3.22-2.12-8.83-.88-12.04-2.41-17.94-6.44-35.76-10.98-53.18-22.85,28.27-12.37,35.69-25.79,59.31-42.78,10.45,3.81,20.28,10.03,29.17,17.34,72.94,59.96,128.39,40.73,169.7,69.81,24.1,16.97,58.38,18.2,79.9,25.21l5.86,1.91c.99.32-1.16,4.29-2.28,4.63l-14.58,4.38c-27.82,1.6-55.28-7.22-81.3-15.84Z"/><path class="cls-1" d="M855.58,685.36c-16.01-28.1-34.47-8.18-82.52-42.93-31.17-22.54-70.75-58.66-109.25-50.48-19.87,4.22-39.7,9.65-58.63,15.96-7.13,2.38-13.1,2.78-20.25-2.96,8.71-1.98,16.77-3.29,24.45-7.04,11.38-5.56,23.86-5.95,35.01-9.41,24.61-7.62,48.44-7.52,71.86,3.61,48.88,23.22,61.7,54.39,128.91,70.36,7.18,1.71,13.59,7.78,16.45,12.16,15.03,23.07-20.12,34.34-37.52,46.18-2.69,1.83-6.29,3.3-9.15,1.07-3.02-2.35-7.17-4.53-4.99-6.81,15.08-6.93,28-15.16,41.03-23.46.5-2.4,1.56-3.98,4.58-6.24Z"/><path class="cls-1" d="M134.01,761.63c-2,2.16-4.36,4.54-5.85,3.88-1.98-.89-3.74-4.34-2.86-6.36l16.6-38.41c16.41-37.98,40.6-72.94,74.1-100.49l-47.61,69.21c-15.36,22.33-26.67,45.65-34.37,72.17Z"/><path class="cls-1" d="M1010.84,701.07c-6.03,6.79-14.04,4.4-20.21,2.23s-13.15-6.7-12.81-14.99c10.31-8.62,28.68-.04,33.02,12.77Z"/><path class="cls-1" d="M800.77,400.56c0,66.05-53.55,119.6-119.6,119.6s-119.6-53.55-119.6-119.6,53.55-119.6,119.6-119.6,119.6,53.55,119.6,119.6ZM633.16,443.62c1.98,5.44,7.93,5.46,13.45,5.62-8.41,13.09-7.42,28.8-.28,43.14,10.93,21.97,48.18,27.14,67.75,6.55,9.41-9.9,12.79-22.36,9.46-35.2l-5.48-21.17c9.14.07,20.57-1.52,20.72-11.36.13-8.83-7.63-13.93-11.42-23.06,15.35,3.17,29.66-.65,39.8-10.26,11.36-10.77,14.26-23.93,11.78-40.74-2.62-17.76-24.72-34.23-42.27-31.56-16.37,2.5-30.22,9.38-36.19,24.79-5.71-.85-11.52,1.68-16.97,5-9.9-10.08-13.59,2.28-19.45-2.46-4.61-3.73-9.58-26.7-42.53-26.64-20.84.04-39.13,14.41-38.61,35.77.34,13.87.54,25.48,11.44,34.58,9.78,8.17,20.02,13.5,34.94,9.51-2.28,8.51.91,16.23,9.06,18.17-4.11,5.2-7.72,12.34-5.19,19.3Z"/><path class="cls-2" d="M633.16,443.62c-2.54-6.96,1.08-14.1,5.19-19.3-8.15-1.95-11.34-9.67-9.06-18.17-14.92,3.99-25.16-1.34-34.94-9.51-10.9-9.11-11.1-20.72-11.44-34.58-.52-21.36,17.77-35.73,38.61-35.77,32.95-.06,37.92,22.91,42.53,26.64,5.87,4.74,9.56-7.62,19.45,2.46,5.45-3.32,11.26-5.85,16.97-5,5.97-15.41,19.82-22.3,36.19-24.79,17.54-2.67,39.65,13.8,42.27,31.56,2.48,16.81-.42,29.97-11.78,40.74-10.14,9.61-24.44,13.43-39.8,10.26,3.78,9.14,11.54,14.23,11.42,23.06-.14,9.84-11.58,11.43-20.72,11.36l5.48,21.17c3.33,12.84-.05,25.3-9.46,35.2-19.57,20.58-56.82,15.42-67.75-6.55-7.14-14.34-8.13-30.05.28-43.14-5.52-.15-11.47-.18-13.45-5.62ZM711.17,421.48c-4.12-5.78-6.44-9.31-7-13.81-.63-5.11,1.85-8.73,6.01-11.36-6.55-8.4-13.28-14.84-14.5-24.26-5.07,6.22-12.49,10.94-18.43,6.11-3.62-2.94-5.44-6.89-11.54-5.55-2.09,8.34-8.53,15.62-13,24.01-.33,2.38.3,6.89-1.2,9.33,5.93-.35,10.19,2.58,12.13,7.51,1.65,4.2-.69,9.51-3.5,13.81,10.12,5.93,23.2,3.95,35.7,3.57,4.13-3.59,9.2-8.41,15.34-9.36Z"/><path class="cls-1" d="M711.17,421.48c-6.13.95-11.21,5.77-15.34,9.36-12.5.38-25.58,2.36-35.7-3.57,2.81-4.3,5.15-9.61,3.5-13.81-1.94-4.93-6.2-7.86-12.13-7.51,1.5-2.44.87-6.94,1.2-9.33,4.47-8.39,10.91-15.67,13-24.01,6.1-1.34,7.92,2.61,11.54,5.55,5.94,4.83,13.36.1,18.43-6.11,1.22,9.42,7.95,15.86,14.5,24.26-4.16,2.63-6.64,6.26-6.01,11.36.56,4.5,2.88,8.03,7,13.81Z"/></svg>