<?xml version="1.0" encoding="UTF-8"?><svg id="Layer_1" xmlns="http://www.w3.org/2000/svg" viewBox="0 0 262.19 262.19"><defs><style>.cls-1{fill:#9747fe;}.cls-2{fill:#e0e0e0;}</style></defs><path class="cls-1" d="M262.19,131.1c0,72.4-58.69,131.1-131.1,131.1S0,203.5,0,131.1,58.69,0,131.1,0s131.1,58.69,131.1,131.1ZM145.82,71.14c0-10.97-8.9-19.87-19.87-19.87s-19.87,8.9-19.87,19.87,8.9,19.87,19.87,19.87,19.87-8.9,19.87-19.87ZM165.02,173.59c-.81-.68-3.92-.74-4.82,0l-8.86,7.21-.77-54.91c-.12-8.38-2.21-16.52-9.24-20.38s-14.28-4.38-21.69.18c-15.54,9.56-28.6,31.35-21.69,35.26,5.28,2.99,8.44-6.5,13.95-6.39l.34,59.54c.04,6.77,5.52,12.72,9.75,15.08,23.67,13.19,49.77-29.95,43.03-35.57Z"/><path class="cls-2" d="M165.02,173.59c6.74,5.62-19.36,48.76-43.03,35.57-4.22-2.35-9.71-8.31-9.75-15.08l-.34-59.54c-5.51-.11-8.67,9.38-13.95,6.39-6.91-3.91,6.15-25.69,21.69-35.26,7.41-4.56,14.45-4.16,21.69-.18s9.12,12,9.24,20.38l.77,54.91,8.86-7.21c.9-.73,4-.67,4.82,0Z"/><circle class="cls-2" cx="125.95" cy="71.14" r="19.87"/></svg>