<?xml version="1.0" encoding="UTF-8"?><svg id="Layer_1" xmlns="http://www.w3.org/2000/svg" viewBox="0 0 511.42 509.66"><defs><style>.cls-1{fill:#9747ff;}.cls-2{fill:#e0e0e0;}</style></defs><path class="cls-1" d="M466.91,509.66l-422.8-.02C20.42,509.65,0,486.89,0,463.81L.03,135.47c0-25.2,21.54-45.91,45.93-46.01l112.51-.49c3.26-21.38,11.79-41.2,25.88-57,37.99-42.64,104.71-42.59,142.73-.03,14.09,15.78,22.43,35.53,25.94,57l112.44.51c24.26.11,45.91,20.75,45.91,45.88l.06,328.33c0,23.2-20.18,46-44.51,46ZM315.39,88.95c-4.25-30.72-29.08-50.31-57.65-51.08-31.11-1.21-57.78,20.26-61.71,51.19l119.36-.1ZM237.52,286.01v53.43s36.37,0,36.37,0v-53.43s-36.37,0-36.37,0ZM311.04,333.35l-.37,27.71c-1.42,9.73-9.76,15.51-19.42,15.51h-72.03c-9.19.01-16.13-6.16-18.62-14.5l-.11-28.69-163.76-41.78.04,170.01c0,6.6,5.11,10.79,11.22,11.41h415.46c6.14-.58,11.21-4.83,11.21-11.39v-170s-163.6,41.72-163.6,41.72Z"/><path class="cls-2" d="M311.04,333.35l163.61-41.72v170c0,6.57-5.08,10.81-11.22,11.39H47.98c-6.11-.61-11.22-4.81-11.22-11.41l-.04-170.01,163.76,41.78.11,28.69c2.49,8.35,9.43,14.52,18.62,14.51h72.03c9.66-.01,18-5.79,19.42-15.52l.37-27.71Z"/><rect class="cls-2" x="228.99" y="294.54" width="53.43" height="36.38" transform="translate(-57.07 568.38) rotate(-89.99)"/></svg>