<?xml version="1.0" encoding="UTF-8"?><svg id="Layer_1" xmlns="http://www.w3.org/2000/svg" viewBox="0 0 124.02 124.02"><defs><style>.cls-1{fill:#9747ff;}.cls-2{fill:#e0e0e0;}</style></defs><path class="cls-1" d="M112.39,124.01H12.07c-6.25-1.24-10.81-5.81-12.07-12.06V11.25C1.8,5.62,5.62,1.8,11.25.01h100.7c6.25,1.23,10.81,5.81,12.06,12.05v99.88c-1.19,5.98-5.27,10.33-11.63,12.07ZM90.48,52.96l27.51,27.44-.08-64.15c0-5.12-4.89-10.08-10.09-10.08H16.21c-5.17,0-10.11,4.92-10.11,10.12l-.06,89.06c13.4-13.21,25.66-25.65,39.28-38.75l15.21,15.2c10.2-9.63,19.24-19.72,29.95-28.84Z"/><path class="cls-2" d="M90.48,52.96c-10.71,9.12-19.74,19.21-29.95,28.84l-15.21-15.2c-13.62,13.1-25.89,25.53-39.28,38.75l.06-89.06c0-5.2,4.94-10.12,10.11-10.12h91.6c5.21,0,10.09,4.96,10.09,10.08l.08,64.15-27.51-27.44ZM53.85,37.25c0-7.21-5.84-13.05-13.05-13.05s-13.05,5.84-13.05,13.05,5.84,13.05,13.05,13.05,13.05-5.84,13.05-13.05Z"/><circle class="cls-1" cx="40.8" cy="37.25" r="13.05"/></svg>