<?xml version="1.0" encoding="UTF-8"?><svg id="Layer_1" xmlns="http://www.w3.org/2000/svg" viewBox="0 0 350.69 346.58"><defs><style>.cls-1{fill:#e0e0e0;}.cls-2{fill:#9747ff;}</style></defs><path class="cls-2" d="M224.46,342.65c-4.12-1.93-6.16-5.64-6.19-10.45l-.3-54.32c-.05-9.88-5.11-18.22-11.41-25.25,50.47-6,74.7-25.76,79.73-75.73,2.1-20.84-2.87-41.44-17.83-57.07,6.24-15.36,4.49-31.49-1.83-46.8-4.72-.53-8.78.19-13.39,1.23-12,4.23-23.04,9.76-34.09,17.25-28.81-7.97-59.14-7.87-87.85-.06-14.6-9.24-29.42-17.45-46.99-19.22-7.23,14.68-8.65,31.79-2.38,47.47-14.39,15.16-19.81,35.18-17.95,55.95,4.5,50.29,28.99,71.36,79.89,76.99-6.36,6.7-10.54,14.66-11.18,23.92-20.16,8.58-39.32,7-51.02-13-15.27-26.12-43.6-20.31-32.81-13.08,9.66,6.47,18.4,14.77,22.71,26.65,9.66,26.64,34.45,27.06,60.44,23.45l.02,34.31c0,4.15-3.4,6.83-6.7,7.86-37.48-10-69.96-34.01-93.13-65.28C13.3,251.92,3.2,222.17,0,191.23v-30.8C7.13,78.8,70.31,12.36,151.54,1.57c102.59-13.63,195.13,63.05,199,166.95,3.22,86.16-46.5,145.46-126.08,174.12Z"/><path class="cls-1" d="M224.46,342.65l-10.93,3.94h-77.33c-3.66-.66-7.45-2.96-10.86-3.87,3.3-1.02,6.7-3.7,6.7-7.86l-.02-34.31c-25.99,3.62-50.78,3.19-60.44-23.45-4.31-11.88-13.05-20.18-22.71-26.65-10.79-7.23,17.54-13.04,32.81,13.08,11.7,20.01,30.86,21.58,51.02,13,.65-9.26,4.83-17.22,11.18-23.92-50.9-5.63-75.39-26.69-79.89-76.99-1.86-20.77,3.56-40.79,17.95-55.95-6.27-15.68-4.84-32.79,2.38-47.47,17.57,1.77,32.39,9.98,46.99,19.22,28.71-7.81,59.04-7.91,87.85.06,11.04-7.49,22.08-13.02,34.09-17.25,4.6-1.04,8.67-1.76,13.39-1.23,6.32,15.31,8.07,31.44,1.83,46.8,14.96,15.62,19.93,36.23,17.83,57.07-5.03,49.97-29.26,69.73-79.73,75.73,6.29,7.03,11.35,15.38,11.41,25.25l.3,54.32c.03,4.82,2.07,8.53,6.19,10.45Z"/></svg>