<?xml version="1.0" encoding="UTF-8"?><svg id="Layer_1" xmlns="http://www.w3.org/2000/svg" viewBox="0 0 1280 1280"><defs><style>.cls-1{fill:#9747ff;}.cls-2{fill:#e0e0e0;}</style></defs><path class="cls-1" d="M1155,0c66.55,9.59,116.11,59.4,125,126v1028c-8.86,66.83-59.19,117.14-126,126H126c-66.53-8.91-116.37-58.49-126-125V125C9.65,58.69,58.69,9.68,125,0h1030ZM404.14,291.51c0-62.68-50.81-113.49-113.49-113.49s-113.49,50.81-113.49,113.49,50.81,113.49,113.49,113.49,113.49-50.81,113.49-113.49ZM896.61,693.76c10.01,21.73,13.23,44.58,15.32,68.92l.11,339.6,190.29-.06.02-392.09c-.02-40.66-6-80.87-21.13-118.07-34.52-84.91-112.37-125.27-201.08-125.05-76.19-1.6-146.22,35.75-187.74,100.36l-.33-81.47-183.06.07v616.67s183.09-.32,183.09-.32l.21-328.68c1.05-57.8,22.51-116.28,84.86-129.54,48.37-10.29,97.12,1.17,119.46,49.69ZM387,485.91h-191v616.44h191V485.91Z"/><path class="cls-2" d="M896.61,693.76c-22.34-48.52-71.09-59.98-119.46-49.69-62.35,13.26-83.81,71.74-84.86,129.54l-.21,328.68-183.08.32V485.95s183.06-.07,183.06-.07l.33,81.47c41.52-64.61,111.55-101.96,187.74-100.36,88.71-.21,166.56,40.15,201.08,125.05,15.13,37.2,21.1,77.41,21.13,118.07l-.02,392.09-190.29.06-.11-339.6c-2.08-24.34-5.31-47.19-15.32-68.92Z"/><rect class="cls-2" x="196" y="485.91" width="191" height="616.44"/><circle class="cls-2" cx="290.65" cy="291.51" r="113.49"/></svg>