<?xml version="1.0" encoding="UTF-8"?><svg id="Layer_1" xmlns="http://www.w3.org/2000/svg" viewBox="0 0 156.23 157.37"><defs><style>.cls-1{fill:#9747fe;}.cls-2{fill:#e0e0e0;}</style></defs><path class="cls-1" d="M122.18,76.91l-9.24-.05c-.68-.9-1.17-2.43-1.35-3.52l-.89-5.63-8.29-3.53c-2.76,1.12-4.69,4.32-7.51,4.78-.75.12-2.37-1.18-2.9-1.74l-4.24-4.54c-1.98-2.12,4-6.97,4.33-8.93l-3.66-8.4-6.27-.73c-.81-.09-2.84-.99-2.84-1.88v-8.36c-.01-.88,1.79-2.12,2.54-2.23l6.73-.93,2.85-6.64c1.06-2.47-.32-3.31-3.26-6.9-.55-.67-.94-3.07-.3-3.72l5.3-5.4c.84-.85,2.84-.61,3.66.05l4.22,3.4c2.04,1.64,5.1-1.75,9.64-2.77l.94-6.27c.12-.82.83-2.88,1.71-2.89L121.94,0c.57,0,1.83,1.19,1.92,1.76l1.23,7.5c4.52,1.02,7.53,4.35,9.44,2.81l3.97-3.2c1.43-1.15,3.16-1.24,4.43.06l4.75,4.85c.6.61.74,2.59.26,3.21l-2.43,3.14c-.67.87-1.59,2.27-1.98,2.94l3.44,8,7.27,1.2c.86.14,1.98,1.55,1.98,2.39l-.02,7.61c0,1.16-1.18,2.19-2.39,2.32l-6.63.75-1.13,2.89-2.57,5.87,4.23,5.41c.37.48.88,2.39.46,2.84l-3.79,4.07c-.86.93-2.66,2.49-3.82,2.67-5.04-2.14-5.17-5.87-9.02-4.2l-6.47,2.82-1.19,7.27c-.07.45-1.25,1.92-1.7,1.92ZM132.73,38.45c0-8.32-6.75-15.07-15.07-15.07s-15.07,6.75-15.07,15.07,6.75,15.07,15.07,15.07,15.07-6.75,15.07-15.07Z"/><circle class="cls-2" cx="117.66" cy="38.45" r="15.07"/><path class="cls-1" d="M72.21,156.2c-1.17.49-4.32,1.79-5.22.83-1.98-2.13-3.2-4.53-4.58-6.93l-2.04-3.57-13.54-.04-2.43,4.08-3.56,5.95c-.41.69-2.75,1.01-3.48.71l-3.73-1.55-6.18-2.56c-1.47-.61-2.48-2.62-2.06-4.19l2.69-10.24-2.96-2.77-3-2.93-3.73-3.76-10.15,2.64c-1.93.5-3.75-1.12-4.43-2.77l-2.83-6.88c-.52-1.27-1.45-3.68-.66-5,.9-1.49,2.97-2.4,4.46-3.27l6.01-3.51c-.32-4.1-.33-8.75-.07-12.38.04-.5-.56-1.54-.9-1.74l-9.3-5.5c-.83-1.14-.25-4.05.26-5.26l3.26-7.77c.66-1.56,2.58-2.84,4.47-2.3l8.62,2.49c.74.21,2.19-.39,2.7-1.02,2.59-3.13,4.84-5.3,8.17-8.1-.68-7.56-6.13-12.49.72-15.16l9.45-3.68c.92-.36,2.98,1.23,3.49,2.09l5.08,8.63h13.56c.58-.87,1.58-2.41,2.23-3.57l2.62-4.65c.53-.95,2.61-2.91,3.65-2.51l9.55,3.69c7,2.7,1.13,8.11.85,15.21,3.01,2.61,6.49,6.11,8.68,8.6.33.37,1.8.57,2.27.43l8.32-2.43c1.82-.53,3.88.64,4.49,2.09l3.3,7.8c3.25,7.69-4.65,6.97-10.02,11.8.5,4.8.47,8.52.01,13.2l9.07,5.27c1.55.9,2.16,3.2,1.45,4.9l-4.09,9.7c-.83,1.97-3.61,1.71-5.27,1.26l-8.76-2.38-3.4,3.63c-4.68,4.99-6.74,4.63-5.76,8.12l2.24,8c.53,1.88-.72,3.61-2.37,4.3l-7.15,2.99ZM76.46,103.5c0-12.8-10.38-23.18-23.18-23.18s-23.18,10.38-23.18,23.18,10.38,23.18,23.18,23.18,23.18-10.38,23.18-23.18Z"/><circle class="cls-2" cx="53.28" cy="103.5" r="23.18"/></svg>