<?xml version="1.0" encoding="UTF-8"?><svg id="Layer_1" xmlns="http://www.w3.org/2000/svg" viewBox="0 0 657.85 721.11"><defs><style>.cls-1{fill:#9747ff;}.cls-2{fill:#e0e0e0;}</style></defs><path class="cls-1" d="M616.03,720.69l-575.82.42c-19.66-4.07-39.83-20.5-39.84-42.4L0,42.35C2.9,20.43,18.82,4.3,40.53,0l574.46.34c22.16.01,42.81,23.1,42.81,45.09l.05,630.23c0,21.37-20,45-41.82,45.02ZM603.05,55.04H55.05v611h548V55.04Z"/><path class="cls-2" d="M603.05,55.04v611H55.05V55.04h548ZM548.05,109.04h-174v47h174v-47ZM270.14,177.97c0-28.11-22.78-50.89-50.89-50.89s-50.89,22.78-50.89,50.89,22.78,50.89,50.89,50.89,50.89-22.78,50.89-50.89ZM548.05,200.04h-174v47h174v-47ZM312.06,329.04v-53.84c-3.84-22.55-21.52-38.41-44.4-40.05h-97.12c-23.6,2.06-40.85,17.9-44.41,41.32l-.11,52.57h186.03ZM548.05,292.04h-174v46h174v-46ZM548.05,383.04H109.05v47h439v-47ZM548.05,474.04H109.05v47h439v-47ZM548.05,573.04H109.05v47h439v-47Z"/><rect class="cls-1" x="109.05" y="383.04" width="439" height="47"/><rect class="cls-1" x="109.05" y="474.04" width="439" height="47"/><rect class="cls-1" x="109.05" y="573.04" width="439" height="47"/><rect class="cls-1" x="374.05" y="109.04" width="174" height="47"/><rect class="cls-1" x="374.05" y="200.04" width="174" height="47"/><rect class="cls-1" x="374.05" y="292.04" width="174" height="46"/><path class="cls-1" d="M312.06,329.04H126.02s.11-52.57.11-52.57c3.57-23.42,20.81-39.26,44.41-41.33h97.12c22.87,1.65,40.56,17.51,44.39,40.06v53.84Z"/><circle class="cls-1" cx="219.25" cy="177.97" r="50.89"/></svg>